<svg width="21" height="20" viewBox="0 0 21 20" fill="none"
    xmlns="http://www.w3.org/2000/svg">
    <path d="M14.44 0H6.06C2.42 0 0.25 2.17 0.25 5.81V14.18C0.25 17.83 2.42 20 6.06 20H14.43C18.07 20 20.24 17.83 20.24 14.19V5.81C20.25 2.17 18.08 0 14.44 0ZM7.36 14.9C7.36 15.18 7.14 15.4 6.86 15.4H4.07C3.79 15.4 3.57 15.18 3.57 14.9V10.28C3.57 9.65 4.08 9.14 4.71 9.14H6.86C7.14 9.14 7.36 9.36 7.36 9.64V14.9ZM12.14 14.9C12.14 15.18 11.92 15.4 11.64 15.4H8.85C8.57 15.4 8.35 15.18 8.35 14.9V5.74C8.35 5.11 8.86 4.6 9.49 4.6H11.01C11.64 4.6 12.15 5.11 12.15 5.74V14.9H12.14ZM16.93 14.9C16.93 15.18 16.71 15.4 16.43 15.4H13.64C13.36 15.4 13.14 15.18 13.14 14.9V11.35C13.14 11.07 13.36 10.85 13.64 10.85H15.79C16.42 10.85 16.93 11.36 16.93 11.99V14.9Z" fill="url(#paint0_linear_19606_16443)" />
    <defs>
        <linearGradient id="paint0_linear_19606_16443" x1="-9.74502" y1="10" x2="10.255" y2="29.99" gradientUnits="userSpaceOnUse">
            <stop stop-color="#FFE16A" />
            <stop offset="1" stop-color="#B78103" />
        </linearGradient>
    </defs>
</svg>
